<svg width="120" height="31" viewBox="0 0 120 31" fill="none" xmlns="http://www.w3.org/2000/svg">
<path d="M57.4441 11.6082H54.6714V14.3808H57.4441V11.6082Z" fill="#8C794A"/>
<path d="M57.4441 7.82324H54.6714V10.5958H57.4441V7.82324Z" fill="#8C794A"/>
<path d="M57.4441 4.03833H54.6714V6.80938H57.4441V4.03833Z" fill="#8C794A"/>
<path d="M61.2415 11.6082H58.4688V14.3808H61.2415V11.6082Z" fill="#8C794A"/>
<path d="M61.2415 7.82324H58.4688V10.5958H61.2415V7.82324Z" fill="#8C794A"/>
<path d="M65.0394 11.6082H62.2666V14.3808H65.0394V11.6082Z" fill="#8C794A"/>
<path d="M65.0394 7.82324H62.2666V10.5958H65.0394V7.82324Z" fill="#8C794A"/>
<path d="M65.0394 4.03833H62.2666V6.80938H65.0394V4.03833Z" fill="#8C794A"/>
<path d="M54.6914 3.00741L56.0646 0L57.4377 3.00741H54.6914Z" fill="#8C794A"/>
<path d="M62.2931 3.00741L63.6616 0L65.0379 3.00586H62.29" fill="#8C794A"/>
<path d="M0.00155511 26.5255C0.00155511 23.7653 1.77127 21.834 4.3092 21.834C5.30603 21.834 6.29041 22.0548 7.19237 22.4778L6.49879 25.3359L6.41171 25.3235C6.25153 23.5165 5.39622 22.5882 3.92354 22.5882C2.45085 22.5882 1.60954 23.6658 1.60954 25.3608C1.60954 27.7135 2.97181 29.3339 4.95146 29.3339C6.152 29.3339 6.83314 28.8876 7.13017 27.9219L7.22969 27.9468C6.80826 29.9636 5.68236 30.9884 3.87533 30.9884C1.54733 30.9931 0 29.211 0 26.5255" fill="#8C794A"/>
<path d="M16.2913 23.3813V29.4459C16.2913 30.2125 16.551 30.522 17.1451 30.6712V30.7459H13.4066V30.6712C14.0131 30.5235 14.2603 30.2141 14.2603 29.4459V26.5131H11.1626V29.4459C11.1626 30.2125 11.4223 30.522 12.0163 30.6712V30.7459H8.27783V30.6712C8.87344 30.5235 9.13159 30.2141 9.13159 29.4459V23.3813C9.13159 22.6147 8.87188 22.3037 8.27783 22.1559V22.0813H12.021V22.1559C11.4254 22.3037 11.1657 22.6147 11.1657 23.3813V26.1663H14.2603V23.3813C14.2603 22.6147 14.0131 22.3037 13.4066 22.1559V22.0813H17.1451V22.1559C16.5479 22.3052 16.2882 22.6147 16.2882 23.3813" fill="#8C794A"/>
<path d="M26.5892 30.6713V30.7459H22.6874V30.6713C23.3561 30.4613 23.5163 30.0042 23.1944 29.0261L22.7123 27.6032H19.8027L19.246 29.2251C18.9365 30.1161 19.2709 30.4878 19.8774 30.6728V30.7475H17.5991V30.6728C18.1947 30.4878 18.4778 30.0913 18.7997 29.1878L21.2878 22.0829H22.9254L25.5379 29.4102C25.8101 30.1643 26.034 30.5002 26.5907 30.6713M22.6035 27.2549L21.2676 23.3316L19.9178 27.2549H22.6035Z" fill="#8C794A"/>
<path d="M33.6212 21.7594V25.126H33.5466C33.3242 23.5166 32.5809 22.4763 31.3803 22.4763H31.0833V29.3946C31.0833 30.2358 31.3679 30.5577 32.3212 30.6697V30.7443H27.8036V30.6681C28.7444 30.5577 29.0414 30.2343 29.0414 29.393V22.4763H28.7429C27.5299 22.4763 26.799 23.5166 26.5766 25.126H26.502V21.7594H26.5642C26.7057 21.8822 26.8721 21.974 27.0509 22.03C27.2297 22.086 27.4195 22.1031 27.6045 22.0813H32.5187C32.7053 22.1015 32.8934 22.0828 33.0723 22.0284C33.2511 21.9724 33.416 21.8822 33.559 21.7594H33.6212Z" fill="#8C794A"/>
<path d="M41.2944 27.3916L40.9725 30.7458H34.5234V30.6712C35.119 30.5235 35.3772 30.2871 35.3772 29.4085V23.3439C35.3772 22.54 35.1299 22.3036 34.5234 22.1528V22.0781H40.8232L41.0456 25.0249H40.9709C40.5246 23.3657 39.6475 22.3891 38.1733 22.3891H37.4066V26.1523H37.8887C38.3335 26.1787 38.772 26.0357 39.1141 25.7495C39.4562 25.465 39.6786 25.0591 39.733 24.6175H39.8077V28.0836H39.733C39.6864 27.6311 39.4702 27.2128 39.1281 26.9127C38.786 26.6126 38.3428 26.454 37.8887 26.4664H37.4066V30.4348H38.1733C39.8699 30.4348 40.6366 29.494 41.2151 27.3932H41.2928L41.2944 27.3916Z" fill="#8C794A"/>
<path d="M51.1116 30.6713V30.7459H47.2098V30.6713C47.8785 30.4613 48.0387 30.0042 47.7183 29.0261L47.2362 27.6032H44.3266L43.7699 29.2251C43.4604 30.1161 43.7948 30.4878 44.4013 30.6728V30.7475H42.123V30.6728C42.7187 30.4878 43.0017 30.0913 43.3236 29.1878L45.8118 22.0829H47.4462L50.0588 29.4102C50.3309 30.1643 50.5548 30.5002 51.1131 30.6713M47.1258 27.2549L45.7884 23.3316L44.4386 27.2549H47.1243H47.1258Z" fill="#8C794A"/>
<path d="M59.2824 22.1559C58.6867 22.3037 58.3913 22.5898 58.3913 23.4684V27.6638C58.3913 29.7429 57.3027 30.9931 55.1971 30.9931C53.0915 30.9931 51.7681 29.7678 51.7681 27.4275V23.3424C51.7681 22.5385 51.5332 22.3021 50.9268 22.1528V22.0782H54.8518V22.1528C54.1334 22.3254 53.8239 22.5867 53.8239 23.4653V27.4259C53.8239 29.1831 54.5424 30.1239 55.9155 30.1239C57.2887 30.1239 57.9947 29.1986 57.9947 27.4119V23.5866C58.0196 23.4139 58.0087 23.2382 57.9621 23.0687C57.9154 22.9008 57.8345 22.7437 57.7241 22.6084C57.6137 22.4732 57.4753 22.3628 57.3198 22.2834C57.1643 22.2041 56.9932 22.159 56.8191 22.1497V22.0751H59.2824V22.1528V22.1559Z" fill="#8C794A"/>
<path d="M71.2739 26.3887C71.2739 29.2732 69.3425 30.7459 66.8434 30.7459H63.0801V30.6712C63.6757 30.5235 63.9338 30.2871 63.9338 29.4085V23.3439C63.9338 22.54 63.6866 22.3036 63.0801 22.1544V22.0797H66.8186C69.6022 22.0828 71.2739 23.728 71.2739 26.3902M69.0719 26.5488C69.0719 23.4046 68.2042 22.3907 66.3862 22.3907H65.9648V30.4333H66.3862C68.2804 30.4333 69.0735 29.5703 69.0735 26.5504L69.0719 26.5488Z" fill="#8C794A"/>
<path d="M73.4526 23.7202L72.5118 23.1013L73.2909 21.876L74.5163 22.6302C74.3919 23.1729 74.1602 23.686 73.8352 24.1401C73.5102 24.5926 73.0981 24.9767 72.6222 25.2675L72.4854 25.0327C72.7279 24.8927 72.9379 24.703 73.1043 24.4775C73.2707 24.2521 73.3889 23.9939 73.4511 23.7218" fill="#8C794A"/>
<path d="M78.6884 23.3439V29.4085C78.6884 30.1145 78.9481 30.5219 79.5422 30.6712V30.7459H75.8037V30.6712C76.3993 30.5235 76.6575 30.2871 76.6575 29.4085V23.3439C76.6575 22.5384 76.4102 22.3036 75.8037 22.1544V22.0797H79.5391V22.1544C79.2685 22.201 79.029 22.3534 78.8704 22.5758C78.7118 22.7981 78.6449 23.0749 78.6884 23.3455" fill="#8C794A"/>
<path d="M81.5358 23.431C81.2264 22.725 80.9791 22.2554 80.3462 22.1559V22.0813H84.5045V22.1559C83.9758 22.2181 83.6384 22.4529 83.6384 22.9225C83.6461 23.1496 83.7006 23.3735 83.7985 23.5788L85.6429 27.9359L87.4002 23.6783C87.4981 23.4512 87.5526 23.2071 87.5603 22.9599C87.5634 22.8557 87.5463 22.7515 87.5075 22.6535C87.4686 22.5555 87.4126 22.4669 87.3395 22.3923C87.268 22.3176 87.1809 22.257 87.0845 22.2166C86.988 22.1761 86.8854 22.1544 86.7797 22.1544V22.0797H89.1325V22.1544C88.5136 22.2788 88.2539 22.6131 87.82 23.627L84.7627 30.8671H84.7005L81.5343 23.4279L81.5358 23.431Z" fill="#8C794A"/>
<path d="M89.0234 26.4135C89.0405 25.5303 89.3205 24.6703 89.8243 23.9457C90.3282 23.2195 91.0357 22.6581 91.8584 22.3331C92.681 22.0081 93.5799 21.9319 94.4445 22.1154C95.3092 22.2989 96.1007 22.7343 96.7181 23.3672C97.337 23.9986 97.7538 24.7994 97.9187 25.6687C98.0835 26.5379 97.9886 27.4352 97.645 28.25C97.3013 29.0648 96.7243 29.7599 95.9888 30.2482C95.2516 30.7365 94.387 30.9962 93.5037 30.9946C92.9003 31.0195 92.2985 30.9169 91.7371 30.6929C91.1757 30.4706 90.6672 30.1316 90.2458 29.7008C89.8228 29.2685 89.4962 28.7538 89.2863 28.1878C89.0748 27.6218 88.9861 27.0184 89.0234 26.4151M95.7088 26.4135C95.7088 23.5787 95.0028 22.2663 93.5053 22.2663C92.0077 22.2663 91.3017 23.5787 91.3017 26.4135C91.3017 29.2483 92.0295 30.5592 93.5053 30.5592C94.9904 30.5592 95.7088 29.2359 95.7088 26.4135Z" fill="#8C794A"/>
<path d="M101.79 23.3439V29.4085C101.79 30.1145 102.049 30.5219 102.643 30.6712V30.7459H98.9048V30.6712C99.5004 30.5235 99.7585 30.2871 99.7585 29.4085V23.3439C99.7585 22.5384 99.5097 22.3036 98.9048 22.1544V22.0797H102.643V22.1544C102.374 22.201 102.133 22.3518 101.973 22.5742C101.813 22.7966 101.748 23.0734 101.79 23.3439Z" fill="#8C794A"/>
<path d="M103.753 30.6712C104.349 30.5235 104.607 30.2871 104.607 29.4085V23.3439C104.607 22.5384 104.36 22.3036 103.753 22.1528V22.0781H107.602C109.979 22.0781 110.894 22.8945 110.894 24.1945C110.894 25.4945 109.607 26.3233 108.109 26.3233V26.398C108.636 26.3467 109.167 26.4648 109.621 26.737C110.075 27.0091 110.431 27.4196 110.635 27.9079L111.291 29.592C111.361 29.8486 111.496 30.0834 111.686 30.27C111.876 30.4566 112.111 30.5903 112.369 30.6572V30.7443H109.608C109.386 30.3555 109.203 29.945 109.064 29.5189L108.408 27.712C108.049 26.8085 107.801 26.5224 107.108 26.5224H106.638V29.4054C106.638 30.1114 106.898 30.5203 107.492 30.6681V30.7427H103.753V30.6727V30.6712ZM107.047 26.2518C108.171 26.2518 108.669 25.5241 108.669 24.2349C108.669 23.12 108.31 22.3782 107.134 22.3782H106.638V26.2534H107.047V26.2518Z" fill="#8C794A"/>
<path d="M119.623 27.3916L119.302 30.7458H112.853V30.6712C113.448 30.5235 113.706 30.2871 113.706 29.4085V23.3439C113.706 22.54 113.459 22.3036 112.853 22.1528V22.0781H119.152L119.375 25.0249H119.3C118.854 23.3657 117.977 22.3891 116.502 22.3891H115.736V26.1523H116.218C116.663 26.1787 117.101 26.0357 117.443 25.7511C117.785 25.4665 118.008 25.0607 118.062 24.619H118.137V28.0852H118.062C118.015 27.6327 117.799 27.2144 117.457 26.9142C117.115 26.6141 116.672 26.4555 116.218 26.468H115.736V30.4364H116.502C118.199 30.4364 118.966 29.4956 119.544 27.3947H119.622L119.623 27.3916Z" fill="#8C794A"/>
<path d="M21.591 19.7145H22.7605L24.1212 21.3177L23.8848 21.3768L22.1338 20.4018L20.3936 21.3799L20.1572 21.3193L21.591 19.7145Z" fill="#8C794A"/>
</svg>
