<svg width="326" height="26" viewBox="0 0 326 26" fill="none" xmlns="http://www.w3.org/2000/svg">
<path d="M5.02828 20.9873H0V26.0001H5.02828V20.9873Z" fill="#182518"/>
<path d="M5.02828 14.1436H0V19.1563H5.02828V14.1436Z" fill="#182518"/>
<path d="M5.02828 7.30176H0V12.3117H5.02828V7.30176Z" fill="#182518"/>
<path d="M11.9152 20.9873H6.88696V26.0001H11.9152V20.9873Z" fill="#182518"/>
<path d="M11.9116 14.1436H6.8833V19.1563H11.9116V14.1436Z" fill="#182518"/>
<path d="M18.8022 20.9873H13.7739V26.0001H18.8022V20.9873Z" fill="#182518"/>
<path d="M18.7963 14.1436H13.7681V19.1563H18.7963V14.1436Z" fill="#182518"/>
<path d="M18.8022 7.30176H13.7739V12.3117H18.8022V7.30176Z" fill="#182518"/>
<path d="M0.036377 5.43729L2.52654 0L5.0167 5.43729H0.036377Z" fill="#182518"/>
<path d="M13.8159 5.43729L16.2976 0L18.7934 5.43447H13.8103" fill="#182518"/>
<path d="M48.8058 15.6951C48.8058 9.33501 52.896 4.88477 58.7617 4.88477C61.0656 4.88477 63.3407 5.39357 65.4253 6.36818L63.8223 12.954L63.6211 12.9253C63.2509 8.76171 61.2741 6.62258 57.8704 6.62258C54.4667 6.62258 52.5222 9.10569 52.5222 13.0113C52.5222 18.4326 55.6707 22.1662 60.2461 22.1662C63.0208 22.1662 64.5951 21.1378 65.2816 18.9127L65.5116 18.97C64.5376 23.6174 61.9354 25.9786 57.7589 25.9786C52.3785 25.9894 48.8022 21.8831 48.8022 15.6951" fill="#182518"/>
<path d="M86.4556 8.44862V22.4228C86.4556 24.1893 87.0558 24.9023 88.4288 25.2463V25.4183H79.7884V25.2463C81.1901 24.9059 81.7616 24.1929 81.7616 22.4228V15.665H74.602V22.4228C74.602 24.1893 75.2022 24.9023 76.5752 25.2463V25.4183H67.9348V25.2463C69.3114 24.9059 69.908 24.1929 69.908 22.4228V8.44862C69.908 6.68214 69.3078 5.96551 67.9348 5.62511V5.45312H76.586V5.62511C75.2094 5.96551 74.6092 6.68214 74.6092 8.44862V14.866H81.7616V8.44862C81.7616 6.68214 81.1901 5.96551 79.7884 5.62511V5.45312H88.4288V5.62511C87.0487 5.96909 86.4484 6.68214 86.4484 8.44862" fill="#182518"/>
<path d="M110.255 25.2462V25.4182H101.237V25.2462C102.783 24.7624 103.153 23.709 102.409 21.4552L101.295 18.1766H94.57L93.2833 21.9139C92.568 23.967 93.3408 24.8234 94.7425 25.2497V25.4217H89.4771V25.2497C90.8536 24.8234 91.5078 23.9097 92.2518 21.8279L98.0024 5.45654H101.787L107.825 22.3402C108.454 24.0781 108.972 24.852 110.259 25.2462M101.043 17.374L97.9557 8.33379L94.836 17.374H101.043Z" fill="#182518"/>
<path d="M126.508 4.71191V12.4694H126.336C125.822 8.76085 124.104 6.36374 121.329 6.36374H120.643V22.3051C120.643 24.2435 121.3 24.9852 123.504 25.2432V25.4152H113.063V25.2397C115.237 24.9853 115.923 24.24 115.923 22.3015V6.36374H115.233C112.43 6.36374 110.741 8.76085 110.227 12.4694H110.054V4.71191H110.198C110.525 4.99498 110.91 5.20639 111.323 5.33538C111.736 5.46437 112.175 5.50379 112.602 5.45362H123.96C124.391 5.5002 124.826 5.45721 125.24 5.3318C125.653 5.20281 126.034 4.99498 126.365 4.71191H126.508Z" fill="#182518"/>
<path d="M144.242 17.6894L143.498 25.4182H128.593V25.2462C129.97 24.9058 130.566 24.3611 130.566 22.3367V8.36247C130.566 6.50999 129.995 5.96536 128.593 5.61779V5.4458H143.153L143.667 12.2358H143.495C142.463 8.41263 140.436 6.16243 137.029 6.16243H135.257V14.8336H136.371C137.399 14.8945 138.413 14.5649 139.203 13.9056C139.994 13.2499 140.508 12.3147 140.634 11.2971H140.806V19.2839H140.634C140.526 18.2412 140.026 17.2773 139.236 16.5858C138.445 15.8942 137.421 15.5287 136.371 15.5574H135.257V24.7015H137.029C140.95 24.7015 142.722 22.5337 144.059 17.6929H144.239L144.242 17.6894Z" fill="#182518"/>
<path d="M166.932 25.2462V25.4182H157.914V25.2462C159.46 24.7624 159.83 23.709 159.09 21.4552L157.975 18.1766H151.251L149.964 21.9139C149.249 23.967 150.021 24.8234 151.423 25.2497V25.4217H146.158V25.2497C147.534 24.8234 148.188 23.9097 148.932 21.8279L154.683 5.45654H158.461L164.499 22.3402C165.128 24.0781 165.645 24.852 166.936 25.2462M157.72 17.374L154.629 8.33379L151.509 17.374H157.717H157.72Z" fill="#182518"/>
<path d="M185.815 5.6248C184.439 5.96519 183.756 6.62449 183.756 8.64895V18.3162C183.756 23.1069 181.24 25.9877 176.374 25.9877C171.507 25.9877 168.448 23.1642 168.448 17.7716V8.35872C168.448 6.50625 167.906 5.96161 166.504 5.61763V5.44564H175.576V5.61763C173.915 6.01536 173.2 6.61732 173.2 8.64179V17.768C173.2 21.8169 174.86 23.9847 178.034 23.9847C181.208 23.9847 182.839 21.8528 182.839 17.7358V8.92127C182.897 8.52354 182.872 8.11865 182.764 7.72809C182.656 7.34112 182.469 6.97922 182.214 6.66749C181.959 6.35575 181.639 6.10135 181.28 5.91861C180.92 5.73587 180.525 5.63196 180.122 5.61047V5.43848H185.815V5.61763V5.6248Z" fill="#182518"/>
<path d="M213.531 15.3781C213.531 22.0248 209.067 25.418 203.291 25.418H194.593V25.246C195.97 24.9056 196.566 24.361 196.566 22.3365V8.3623C196.566 6.50982 195.995 5.96519 194.593 5.62121V5.44922H203.234C209.667 5.45639 213.531 9.24733 213.531 15.3816M208.442 15.7471C208.442 8.50204 206.436 6.16584 202.234 6.16584H201.26V24.6978H202.234C206.612 24.6978 208.445 22.7091 208.445 15.7507L208.442 15.7471Z" fill="#182518"/>
<path d="M218.567 9.23006L216.393 7.80398L218.193 4.98047L221.026 6.71829C220.738 7.9688 220.202 9.15123 219.451 10.1975C218.7 11.2402 217.748 12.1252 216.648 12.7953L216.332 12.2542C216.892 11.9317 217.377 11.4946 217.762 10.975C218.147 10.4555 218.42 9.86069 218.564 9.23365" fill="#182518"/>
<path d="M230.669 8.3623V22.3365C230.669 23.9632 231.269 24.902 232.642 25.246V25.418H224.002V25.246C225.379 24.9056 225.975 24.361 225.975 22.3365V8.3623C225.975 6.50624 225.404 5.96519 224.002 5.62121V5.44922H232.635V5.62121C232.01 5.7287 231.456 6.07984 231.09 6.59223C230.723 7.10462 230.569 7.74242 230.669 8.36588" fill="#182518"/>
<path d="M237.25 8.56295C236.535 6.93621 235.963 5.85411 234.5 5.62479V5.4528H244.111V5.62479C242.889 5.76811 242.109 6.30917 242.109 7.39127C242.127 7.91441 242.253 8.43038 242.48 8.90335L246.742 18.9433L250.804 9.13267C251.03 8.60954 251.156 8.04698 251.174 7.47726C251.181 7.2372 251.142 6.99713 251.052 6.77139C250.962 6.54565 250.832 6.34142 250.664 6.16943C250.498 5.99744 250.297 5.85769 250.074 5.76453C249.851 5.67137 249.614 5.62121 249.37 5.62121V5.44922H254.808V5.62121C253.377 5.90786 252.777 6.67823 251.774 9.01443L244.708 25.6975H244.564L237.246 8.55579L237.25 8.56295Z" fill="#182518"/>
<path d="M254.556 15.4356C254.596 13.4004 255.243 11.4189 256.407 9.74917C257.572 8.07585 259.207 6.78233 261.108 6.03346C263.01 5.28459 265.087 5.10901 267.086 5.53182C269.084 5.95463 270.913 6.95791 272.34 8.41624C273.771 9.871 274.734 11.7163 275.115 13.7193C275.496 15.7222 275.277 17.7897 274.482 19.6673C273.688 21.5448 272.355 23.1465 270.655 24.2716C268.951 25.3967 266.953 25.9951 264.911 25.9915C263.517 26.0488 262.126 25.8123 260.828 25.2964C259.531 24.784 258.355 24.0029 257.381 23.0103C256.404 22.0142 255.649 20.8282 255.164 19.5239C254.675 18.2197 254.47 16.8294 254.556 15.4392M270.008 15.4356C270.008 8.90355 268.376 5.87939 264.915 5.87939C261.454 5.87939 259.822 8.90355 259.822 15.4356C259.822 21.9676 261.504 24.9882 264.915 24.9882C268.347 24.9882 270.008 21.939 270.008 15.4356Z" fill="#182518"/>
<path d="M284.061 8.3623V22.3365C284.061 23.9632 284.661 24.902 286.034 25.246V25.418H277.394V25.246C278.77 24.9056 279.367 24.361 279.367 22.3365V8.3623C279.367 6.50624 278.792 5.96519 277.394 5.62121V5.44922H286.034V5.62121C285.412 5.7287 284.855 6.07626 284.485 6.58865C284.115 7.10104 283.964 7.73883 284.061 8.3623Z" fill="#182518"/>
<path d="M288.6 25.2462C289.976 24.9058 290.573 24.3611 290.573 22.3367V8.36247C290.573 6.50641 290.001 5.96536 288.6 5.61779V5.4458H297.495C302.987 5.4458 305.104 7.32694 305.104 10.3224C305.104 13.3179 302.128 15.2277 298.667 15.2277V15.3997C299.885 15.2815 301.111 15.5538 302.16 16.1809C303.21 16.8079 304.033 17.7538 304.504 18.879L306.021 22.7595C306.182 23.3507 306.495 23.8917 306.934 24.3217C307.372 24.7517 307.915 25.0598 308.511 25.2139V25.4146H302.132C301.618 24.5188 301.194 23.5728 300.874 22.5911L299.357 18.4275C298.527 16.3457 297.955 15.6864 296.352 15.6864H295.267V22.3295C295.267 23.9562 295.867 24.8986 297.24 25.239V25.411H288.6V25.2498V25.2462ZM296.212 15.0629C298.811 15.0629 299.961 13.386 299.961 10.4156C299.961 7.8465 299.131 6.13735 296.413 6.13735H295.267V15.0665H296.212V15.0629Z" fill="#182518"/>
<path d="M325.276 17.6894L324.532 25.4182H309.626V25.2462C311.003 24.9058 311.6 24.3611 311.6 22.3367V8.36247C311.6 6.50999 311.028 5.96536 309.626 5.61779V5.4458H324.186L324.7 12.2358H324.528C323.496 8.41263 321.469 6.16243 318.062 6.16243H316.29V14.8336H317.404C318.432 14.8945 319.446 14.5649 320.236 13.9092C321.027 13.2534 321.541 12.3182 321.667 11.3006H321.839V19.2874H321.667C321.559 18.2447 321.06 17.2809 320.269 16.5893C319.478 15.8978 318.454 15.5323 317.404 15.561H316.29V24.7051H318.062C321.983 24.7051 323.755 22.5373 325.092 17.6965H325.272L325.276 17.6894Z" fill="#182518"/>
<path d="M98.703 0H101.406L104.551 3.69421L104.004 3.83037L99.9574 1.58374L95.9355 3.83753L95.3892 3.69779L98.703 0Z" fill="#182518"/>
</svg>
